<svg id="Layer_1" data-name="Layer 1" xmlns="http://www.w3.org/2000/svg" viewBox="0 0 515.26 184.87"><defs><style>.cls-1{fill:#666;}</style></defs><title>SoWhite_LogoGray</title><path class="cls-1" d="M230.26,92.29h5.21c2.38,5.28,6.82,8.89,11.41,8.89,3.75,0,5.36-1.76,5.36-4.29,0-2.91-2.14-4.29-9.19-6.13-8.5-2.3-12.26-5.21-12.26-11.11s5-10.88,12.56-10.88c4,0,7.35,1.46,9.27,4.14l.92-4.14h5.13V81h-5.13c-2.6-4.83-5.36-7.89-9.8-7.89-2.76,0-5,1.46-5,4.06,0,2.83,2.45,4.21,8.89,5.9,8,2.15,12.48,4.75,12.48,11.18,0,5.67-4.75,11.41-13,11.41a13.74,13.74,0,0,1-10.8-4.83l-1,4.75h-5.06Z"/><path class="cls-1" d="M264.88,87.31c0-10.88,7.58-18.54,18.31-18.54,11.11,0,18.31,7.35,18.31,18.23s-7.58,18.61-18.31,18.61C272,105.62,264.88,98.19,264.88,87.31Zm26.81-.15c0-9.73-3.22-13.79-8.81-13.79s-8.19,4.13-8.19,13.79S277.82,101,283.49,101C288.93,101,291.68,96.81,291.68,87.16Z"/><path class="cls-1" d="M354.1,75l7.28,22.67h.31L368.43,75h-4.6V69.39h15.09v5.67H374.4l-10,30.18h-9L349,86l-7.43,19.23h-8.81l-9.88-30.18H318V69.39h19.22V75H332l6.89,22.75h.31l7.2-19L345.22,75H340.7V69.39h19.15V75Z"/><path class="cls-1" d="M380.75,99.19h5.44V58.05h-5.44v-6h14.32V77.89c3.45-6.13,7.35-9,12.72-9,6.51,0,10,4.6,10,11.64V99.19h5.44v5.67H404.19V99.19h4.75V82.64c0-2.53-.61-4.52-1.84-5.75a5,5,0,0,0-3.83-1.46c-4.06,0-8.2,3.91-8.2,10.19V99.19h4.68v5.67h-19Z"/><path class="cls-1" d="M427.16,99.19h6.13V75.06h-6.13V69.39h15.09v29.8h6.13v5.67H427.16Zm4.29-41.75a5.59,5.59,0,0,1,5.82-5.82c3.45,0,5.74,2.22,5.74,5.59A5.53,5.53,0,0,1,437.27,63,5.45,5.45,0,0,1,431.45,57.44Z"/><path class="cls-1" d="M465.53,60.2v9.57H477v5.28H465.53V94.67c0,3.37,1,5.13,4,5.13,2.22,0,3.68-2,5.13-6.36l3.91,1.38c-1.84,7.58-5.82,10.8-11.64,10.8-6.89,0-10.34-3.83-10.34-10.65V75.06H449.9V69.77h6.82V61.19Z"/><path class="cls-1" d="M491,88c.31,8.65,3.91,12.18,10.26,12.18,4.21,0,7.28-1.84,9.19-6.36H515c-1.76,7.51-7,11.8-15.78,11.8-11.18,0-17.77-7.66-17.77-18.08,0-10.72,7.58-18.77,17.92-18.77,11.18,0,16.24,9,15.86,19.23Zm.08-4.06h15.32c-.46-6.89-2.6-10.65-7.43-10.65C494.55,73.3,491.64,76.13,491,83.94Z"/><path class="cls-1" d="M229.85,121.05h4.46c3.76,0,6.35,2.58,6.35,5.94v0c0,3.37-2.6,6-6.35,6h-4.46ZM232,123v8.13h2.36a3.9,3.9,0,0,0,4.15-4v0a3.92,3.92,0,0,0-4.15-4.07Z"/><path class="cls-1" d="M246.64,121.05h8.87v1.88h-6.77V126h6v1.88h-6v3.21h6.85V133h-9Z"/><path class="cls-1" d="M260.71,131.27l1.26-1.5a5.55,5.55,0,0,0,3.78,1.55c1.3,0,2.12-.62,2.12-1.5v0c0-.85-.48-1.32-2.7-1.83-2.55-.61-4-1.37-4-3.57v0c0-2,1.71-3.47,4.08-3.47a6.63,6.63,0,0,1,4.34,1.5L268.48,124a5.44,5.44,0,0,0-3.25-1.23c-1.23,0-1.95.63-1.95,1.42v0c0,.92.55,1.33,2.85,1.88,2.53.62,3.83,1.52,3.83,3.5v0c0,2.24-1.76,3.57-4.27,3.57A7.36,7.36,0,0,1,260.71,131.27Z"/><path class="cls-1" d="M276,121.05h2.1v12H276Z"/><path class="cls-1" d="M284.17,127.06v0a6.09,6.09,0,0,1,6.17-6.18,6.45,6.45,0,0,1,4.59,1.62l-1.33,1.59a4.68,4.68,0,0,0-3.35-1.28,4,4,0,0,0-3.88,4.22v0a4,4,0,0,0,4.07,4.27,4.87,4.87,0,0,0,2.89-.9v-2.24h-3.06v-1.83h5.09v5a7.62,7.62,0,0,1-5,1.86A5.93,5.93,0,0,1,284.17,127.06Z"/><path class="cls-1" d="M301.52,121.05h1.95l6.41,8.27v-8.27h2.07v12h-1.76l-6.6-8.51V133h-2.07Z"/><path class="cls-1" d="M333.69,131.62a5.25,5.25,0,0,1-3.66,1.55c-2.24,0-3.91-1.35-3.91-3.42v0a3.59,3.59,0,0,1,2.55-3.35,3.88,3.88,0,0,1-1-2.49v0a3.13,3.13,0,0,1,3.44-3,3,3,0,0,1,3.17,2.89v0c0,1.57-1,2.51-2.63,3.11l2,2.08a17.09,17.09,0,0,0,1.28-2.31l1.59.84a17.82,17.82,0,0,1-1.62,2.72l1.9,1.91-1.57,1.13Zm-1.2-1.23-2.66-2.72a2.22,2.22,0,0,0-1.59,2v0a1.82,1.82,0,0,0,2,1.74A3.3,3.3,0,0,0,332.49,130.39Zm-.07-6.51v0a1.29,1.29,0,0,0-1.35-1.35,1.37,1.37,0,0,0-1.44,1.44v0a2.53,2.53,0,0,0,.91,1.78C331.77,125.3,332.43,124.74,332.43,123.89Z"/><path class="cls-1" d="M351,121.05h2.1v12H351Z"/><path class="cls-1" d="M359.69,121.05h2.1v10h6.29V133h-8.39Z"/><path class="cls-1" d="M373.69,121.05h2.1v10h6.29V133h-8.39Z"/><path class="cls-1" d="M387.15,127.93v-6.88h2.1v6.8c0,2.22,1.15,3.4,3,3.4s3-1.11,3-3.31v-6.88h2.1v6.78c0,3.57-2,5.36-5.14,5.36S387.15,131.4,387.15,127.93Z"/><path class="cls-1" d="M402.9,131.27l1.26-1.5a5.55,5.55,0,0,0,3.78,1.55c1.3,0,2.12-.62,2.12-1.5v0c0-.85-.48-1.32-2.7-1.83-2.54-.61-4-1.37-4-3.57v0c0-2,1.71-3.47,4.08-3.47a6.63,6.63,0,0,1,4.34,1.5L410.67,124a5.44,5.44,0,0,0-3.25-1.23c-1.23,0-1.95.63-1.95,1.42v0c0,.92.55,1.33,2.85,1.88,2.53.62,3.83,1.52,3.83,3.5v0c0,2.24-1.76,3.57-4.27,3.57A7.36,7.36,0,0,1,402.9,131.27Z"/><path class="cls-1" d="M420.74,123H417v-1.95h9.7V123h-3.8v10h-2.12Z"/><path class="cls-1" d="M432.3,121.05h5.33a4.83,4.83,0,0,1,3.45,1.19,3.62,3.62,0,0,1,1,2.58v0a3.59,3.59,0,0,1-2.83,3.62l3.23,4.53H440L437,128.84H434.4V133h-2.1Zm5.18,5.93c1.5,0,2.46-.79,2.46-2v0c0-1.28-.92-2-2.48-2H434.4v4Z"/><path class="cls-1" d="M452.31,121h1.95l5.26,12H457.3l-1.21-2.89h-5.66L449.2,133H447Zm3,7.29-2.07-4.78-2,4.78Z"/><path class="cls-1" d="M466.39,123H462.6v-1.95h9.7V123h-3.8v10h-2.12Z"/><path class="cls-1" d="M478.07,121.05h2.1v12h-2.1Z"/><path class="cls-1" d="M486.26,127.06v0a6.25,6.25,0,0,1,12.5,0v0a6.25,6.25,0,0,1-12.5,0Zm10.3,0v0a4.1,4.1,0,0,0-4.07-4.25,4,4,0,0,0-4,4.22v0a4.08,4.08,0,0,0,4.07,4.24A4,4,0,0,0,496.56,127.06Z"/><path class="cls-1" d="M504.73,121.05h1.95l6.41,8.27v-8.27h2.07v12H513.4l-6.6-8.51V133h-2.07Z"/><path class="cls-1" d="M92.43,12.11a80.33,80.33,0,1,0,80.33,80.33A80.33,80.33,0,0,0,92.43,12.11Zm60.43,59.35L133,79.81,121,72l-5.54-.21,6.61-4.08ZM120.2,73.33l39.23,26.18L88.21,87.42,102.8,72.67ZM90,81.65,67,104.92,83.82,79.09ZM24.56,85.59l-.09-2.09,23-21.35L50,72.24ZM49.35,61.66l9.15,4L73.33,91.61l-11.09,17ZM63.1,112l19.62,7.27,6.66-1.5-.35,4-21.2,7.35Zm32.49,17.69-10.14-4.37,5.44-2.6.52-5.44L139,106.38ZM83.09,117.94l-18.93-7.06,22.94-22,70.81,11.76Z"/><path class="cls-1" d="M92.43,184.87a92.43,92.43,0,1,1,92.43-92.43A92.54,92.54,0,0,1,92.43,184.87ZM92.43,2a90.43,90.43,0,1,0,90.43,90.43A90.54,90.54,0,0,0,92.43,2Z"/></svg>