<svg id="Layer_1" data-name="Layer 1" xmlns="http://www.w3.org/2000/svg" viewBox="0 0 473.03 141.41"><defs><style>.cls-1{fill:#fff;}</style></defs><title>SoWhite_LogoWhite</title><path class="cls-1" d="M188,81.38h5.21c2.38,5.28,6.82,8.89,11.41,8.89,3.75,0,5.36-1.76,5.36-4.29,0-2.91-2.14-4.29-9.19-6.13-8.5-2.3-12.26-5.21-12.26-11.11s5-10.88,12.56-10.88c4,0,7.35,1.46,9.27,4.14l.92-4.14h5.13V70h-5.13c-2.6-4.83-5.36-7.89-9.8-7.89-2.76,0-5,1.46-5,4.06,0,2.83,2.45,4.21,8.89,5.9,8,2.15,12.48,4.75,12.48,11.18,0,5.67-4.75,11.41-13,11.41a13.74,13.74,0,0,1-10.8-4.83l-1,4.75H188Z"/><path class="cls-1" d="M222.65,76.4c0-10.88,7.58-18.54,18.31-18.54,11.11,0,18.31,7.35,18.31,18.23S251.68,94.71,241,94.71C229.77,94.71,222.65,87.27,222.65,76.4Zm26.81-.15c0-9.73-3.22-13.79-8.81-13.79s-8.19,4.13-8.19,13.79,3.14,13.86,8.81,13.86C246.7,90.11,249.46,85.9,249.46,76.25Z"/><path class="cls-1" d="M311.87,64.07l7.28,22.67h.31l6.74-22.67h-4.6V58.48h15.09v5.67h-4.52l-10,30.18h-9L306.74,75.1l-7.43,19.23H290.5l-9.88-30.18H275.8V58.48H295v5.59h-5.21l6.89,22.75H297l7.2-19L303,64.07h-4.52V58.48h19.15v5.59Z"/><path class="cls-1" d="M338.52,88.27H344V47.14h-5.44v-6h14.32V67c3.45-6.13,7.35-9,12.72-9,6.51,0,10,4.6,10,11.64V88.27H381v5.67H362V88.27h4.75V71.73c0-2.53-.61-4.52-1.84-5.75A5,5,0,0,0,361,64.53c-4.06,0-8.2,3.91-8.2,10.19V88.27h4.68v5.67h-19Z"/><path class="cls-1" d="M384.93,88.27h6.13V64.14h-6.13V58.48H400v29.8h6.13v5.67H384.93Zm4.29-41.75A5.59,5.59,0,0,1,395,40.7c3.45,0,5.74,2.22,5.74,5.59A5.53,5.53,0,0,1,395,52.12,5.45,5.45,0,0,1,389.22,46.53Z"/><path class="cls-1" d="M423.3,49.28v9.57h11.49v5.28H423.3V83.75c0,3.37,1,5.13,4,5.13,2.22,0,3.68-2,5.13-6.36l3.91,1.38c-1.84,7.58-5.82,10.8-11.64,10.8-6.89,0-10.34-3.83-10.34-10.65V64.14h-6.66V58.86h6.82V50.28Z"/><path class="cls-1" d="M448.73,77.09c.31,8.65,3.91,12.18,10.26,12.18,4.21,0,7.28-1.84,9.19-6.36h4.6c-1.76,7.51-7,11.8-15.78,11.8-11.18,0-17.77-7.66-17.77-18.08,0-10.72,7.58-18.77,17.92-18.77,11.18,0,16.24,9,15.86,19.23ZM448.8,73h15.32c-.46-6.89-2.6-10.65-7.43-10.65C452.32,62.38,449.41,65.22,448.8,73Z"/><path class="cls-1" d="M70.71,9.26a61.44,61.44,0,1,0,61.44,61.44A61.44,61.44,0,0,0,70.71,9.26Zm46.23,45.4L101.76,61l-9.17-6-4.24-.16,5.06-3.12Zm-25,1.43,30,20L67.48,66.87,78.63,55.59ZM68.82,62.46,51.26,80.25,64.12,60.5Zm-50,3-.07-1.6L36.3,47.54l2,7.72Zm19-18.31,7,3.09L56.09,70.08l-8.48,13ZM48.26,85.67l15,5.56,5.09-1.15-.27,3.07L51.88,98.78ZM73.11,99.21l-7.75-3.34,4.16-2,.4-4.16,36.37-8.34Zm-9.55-9-14.48-5.4L66.62,68l54.16,9Z"/><path class="cls-1" d="M70.71,141.41a70.71,70.71,0,1,1,70.71-70.71A70.79,70.79,0,0,1,70.71,141.41Zm0-139.88a69.18,69.18,0,1,0,69.18,69.18A69.25,69.25,0,0,0,70.71,1.53Z"/></svg>